<?xml version="1.0" encoding="utf-8"?>
<!-- Generator: Adobe Illustrator 19.0.0, SVG Export Plug-In . SVG Version: 6.00 Build 0)  -->
<svg version="1.1" id="Layer_1" xmlns="http://www.w3.org/2000/svg" xmlns:xlink="http://www.w3.org/1999/xlink" x="0px" y="0px"
	 viewBox="0 0 225.9 265.4" style="enable-background:new 0 0 225.9 265.4;" xml:space="preserve">
<style type="text/css">
	.st0{fill:#0F0E0E;}
</style>
<path id="XMLID_2_" class="st0" d="M226.8,161.6c-0.2,0.7-0.4,1.4-0.4,2.1c0,2.2-0.5,4.3-1,6.4c-1.2,5-3.1,9.8-5.7,14.3
	c-5.5,9.3-13.3,16-23.4,20c-4.7,1.9-9.6,3-14.7,3.6c-4.7,0.6-9.4,0.5-14.2,0.3c-4.2-0.2-8.4-0.8-12.5-1.9c-4.8-1.3-9.3-3.4-13.5-6.3
	c-3.5-2.4-6.7-5.2-9.8-8.1c-0.5-0.5-1.1-1-1.6-1.5c-0.4-0.4-0.8-0.3-0.9,0.2c-0.5,2.2-0.9,4.4-1,6.6c-0.3,5.7,0.6,11.3,2.2,16.7
	c2,6.6,4.9,12.8,8.4,18.8c3.5,5.8,7.4,11.2,11.8,16.3c0.3,0.3,0.5,0.6,0.7,1c0,0.1-0.1,0.3-0.2,0.4c0,0-0.1,0.1-0.2,0.1
	c-0.3,0-0.7,0-1,0c-9,0-17.9,0.1-26.9,0.1c-11.5,0-23.1,0.1-34.6,0.1c-3.2,0-6.3,0-9.5,0c-0.2,0-0.4-0.1-0.4-0.2
	c0-0.1,0-0.3,0.1-0.4c0.6-0.7,1.2-1.4,1.7-2.1c3.3-4,6.4-8.1,9.1-12.5c3.3-5.3,6-10.9,8-16.8c1.5-4.8,2.5-9.6,2.6-14.6
	c0.1-3.6-0.4-7.1-1.4-10.6c-0.2-0.5-0.4-1.1-0.7-1.6c-0.2-0.5-0.7-0.5-1-0.1c-0.8,1.2-1.9,2.1-3,2.9c-1,0.7-2,1.5-3,2.2
	c-4.2,2.7-8.5,5.2-12.9,7.5c-2.4,1.2-4.9,1.9-7.5,2.5c-5.4,1.3-10.9,2-16.5,1.9c-12.1-0.2-23.2-3.5-33.1-10.6
	c-9.9-7.1-16.4-16.6-19.7-28.2c-1.4-5-2.1-10.1-2.1-15.2c0-2.1,0-4.2,0.1-6.2c0.1-4.7,0.6-9.3,1.5-13.8c1.8-9.1,6-16.8,12.8-23.1
	c4.8-4.5,10-8.2,16-10.8c6.1-2.7,12.4-4,19.1-3.9c6,0.1,11.7,1.4,17,4.1c0.4,0.2,0.9,0.4,1.3,0.7c0.1-0.3-0.2-0.6-0.3-0.8
	c-0.4-0.5-0.9-1-1.3-1.5c-6.4-7.4-10.7-16-12.6-25.6c-0.8-3.9-1.1-7.9-1-11.9c0.3-8.5,2.5-16.4,7-23.6c4-6.5,9.5-11.5,16.1-15.2
	c4.8-2.7,9.9-4.6,15.3-5.9c4.4-1.1,8.8-1.8,13.3-2.1c1.7-0.1,3.5-0.3,5.2-0.4c4-0.2,8,0.2,11.9,0.8c4.1,0.6,8.2,1.5,12.1,2.7
	c5.7,1.7,11.2,4.1,16.2,7.4c4.1,2.7,7.8,5.9,10.8,9.8c4.3,5.4,7,11.6,8.5,18.4c0.6,2.8,1,5.6,1.1,8.4c0,0.5,0.1,1,0.1,1.5
	c0.3,2.1,0.3,4.3,0.1,6.5c-0.5,6.3-2.3,12.2-5.2,17.8c-2.4,4.6-5.4,8.8-8.9,12.6c-0.4,0.4-0.7,0.9-1.1,1.3c-0.1,0.1-0.1,0.2,0.1,0.2
	c0.5-0.2,1-0.5,1.5-0.7c2.9-1.6,5.9-2.6,9.1-3.3c3.1-0.7,6.2-1,9.4-1c7.4,0,14.7,1.1,21.6,3.9c7.6,3.1,14.1,7.6,19.6,13.8
	c4.9,5.6,8.2,12,9.8,19.3c0.5,2.4,1,4.7,1,7.1c0,0.6,0,1.2,0.2,1.7c0.3,0.7,0.1,1.3,0.2,1.9C226.8,150.3,226.8,155.9,226.8,161.6z"
	/>
</svg>
