<?xml version="1.0" encoding="utf-8"?>
<!-- Generator: Adobe Illustrator 19.0.0, SVG Export Plug-In . SVG Version: 6.00 Build 0)  -->
<svg version="1.1" id="Layer_1" xmlns="http://www.w3.org/2000/svg" xmlns:xlink="http://www.w3.org/1999/xlink" x="0px" y="0px"
	 viewBox="0 0 64.6 50.2" style="enable-background:new 0 0 64.6 50.2;" xml:space="preserve">
<style type="text/css">
	.st0{fill:#656253;}
	.st1{fill:#EFD255;}
	.st2{fill:#CBB451;}
	.st3{fill:#FCFC55;}
	.st4{fill:#FCFB55;}
	.st5{fill:#D6D651;}
	.st6{fill:#D6D551;}
	.st7{fill:#656152;}
</style>
<g>
	<path class="st0" d="M0,9.8c1.5-2,2.8-2.1,4.5-0.1c1.6,1.8,3.2,3.7,4.8,5.5c0.6,0.7,0.9,0.8,1.3-0.1C11.7,13,12.9,11,14,8.9
		c1.2-2.1,3.2-2.1,4.4,0c1,1.8,2,3.6,3.1,5.7c1.9-3.1,3.7-6.1,5.5-9.1c0.8-1.3,1.5-2.5,2.3-3.8c1.5-2.3,4.6-2.3,6,0
		c2.6,4.2,5.1,8.4,7.8,12.8c1.1-2,2.1-3.8,3.1-5.6c0.4-0.7,0.7-1.2,1.7-1.4c1.5-0.4,2.1,0.3,2.7,1.3c1.3,2.3,2.5,4.6,3.9,7.1
		c1.9-2.2,3.8-4.4,5.7-6.5c0.4-0.5,0.8-0.9,1.5-1.1c1.4-0.4,2.2,0.3,2.9,1.3c0,12.1,0,24.1,0,36.2c-1.4,3.4-4.1,4.3-7.7,4.3
		c-16.4-0.1-32.8-0.1-49.2,0c-3.6,0-6.3-0.9-7.7-4.3C0,33.9,0,21.8,0,9.8z M13.8,20.1c0.6,0.8,1.3,1.5,1.9,2.3
		c0.4,0.5,0.7,0.7,1.1,0c1-1.7,2.1-3.4,3.1-5.1c0.3-0.5,0.3-0.9,0.1-1.3c-0.7-1.2-1.3-2.6-2.2-3.7c-0.3-0.7-0.7-1.4-1-2.1
		c-0.4-0.9-0.8-1-1.3,0c-0.9,1.6-1.8,3.3-2.7,4.9C11.4,17.8,11.4,17.8,13.8,20.1z M46.2,19.6c0.5,0.9,1.1,1.9,1.6,2.9
		c0.3,0.6,0.6,0.6,1,0.1c1.2-1.5,2.5-2.9,3.8-4.3c0.3-0.4,0.4-0.7,0.2-1.1c-1-1.6-1.6-3.3-2.8-4.8c-0.1-0.8-0.7-1.4-1-2
		c-0.4-1-0.8-0.9-1.3,0c-1,1.9-2,3.7-3,5.5c-0.3,0.6-0.4,1,0,1.6C45.2,18.1,45.7,18.8,46.2,19.6z M6.3,14.9
		c-1.1-1.3-2.1-2.6-3.2-3.8c-0.2-0.3-0.4-0.8-0.9-0.6c-0.4,0.2-0.2,0.7-0.2,1c0,11,0,21.9,0,32.9c0,2.2,1.4,3.7,3.6,3.8
		c0.7,0,1.4,0,2.1-0.1c0.3,0,0.6,0.1,0.9,0.1c16.6,0,33.3,0,49.9,0c2.5,0,4-1.5,4-4c0-10.9,0-21.8,0-32.7c0-0.4,0.2-0.8-0.2-1.1
		c-0.5,0-0.7,0.4-1,0.7c-4.2,4.7-8.3,9.5-12.5,14.3c-0.7,0.9-1,1.1-1.7-0.1C42.8,18,38.4,10.7,34,3.4c-1.2-1.9-2.2-1.9-3.3,0
		c-3.4,5.7-6.9,11.4-10.3,17.1c-1.2,2-2.4,4-3.7,6c-0.3-0.4-0.6-0.6-0.8-0.9C12.7,22,9.5,18.4,6.3,14.9z"/>
	<path class="st1" d="M6.3,14.9c3.2,3.6,6.3,7.1,9.5,10.7c0.2,0.2,0.4,0.5,0.8,0.9c1.3-2.1,2.5-4,3.7-6c3.4-5.7,6.9-11.4,10.3-17.1
		c1.2-1.9,2.2-1.9,3.3,0c4.4,7.3,8.9,14.6,13.3,22c0.7,1.1,1,0.9,1.7,0.1c4.1-4.8,8.3-9.5,12.5-14.3c0.3-0.3,0.4-0.8,1-0.7
		c0.4,0.3,0.2,0.7,0.2,1.1c0,10.9,0,21.8,0,32.7c0,2.5-1.5,4-4,4c-16.6,0-33.3,0-49.9,0c-0.3,0-0.6,0-0.9-0.1
		c-1.5-1.7-1.5-3.7-1.5-5.8C6.3,33.2,6.3,24,6.3,14.9z M20.3,32c2.2,1.2,4.2,2.4,6.3,3.5c1,0.5,1.7,1.2,2.3,2.3
		c1.1,2.1,2.2,4.2,3.5,6.5c1.1-2.1,2.2-4,3.2-5.9c0.7-1.4,1.6-2.4,3-3.1c1.9-0.9,3.8-2.1,5.8-3.2c-2.3-1.3-4.4-2.5-6.5-3.6
		c-0.9-0.5-1.5-1.1-1.9-2c-1.1-2.1-2.3-4.2-3.5-6.6c-1.3,2.4-2.5,4.5-3.6,6.7c-0.4,0.8-1,1.4-1.9,1.9C24.7,29.5,22.6,30.7,20.3,32z"
		/>
	<path class="st2" d="M6.3,14.9c0,9.2,0,18.3,0,27.5c0,2.1,0,4.1,1.5,5.8c-0.7,0-1.4,0.1-2.1,0.1C3.4,48.1,2,46.6,2,44.4
		c0-11,0-21.9,0-32.9c0-0.4-0.2-0.9,0.2-1c0.4-0.2,0.7,0.3,0.9,0.6C4.2,12.3,5.2,13.6,6.3,14.9z"/>
	<path class="st3" d="M50,12.2c1.1,1.5,1.8,3.2,2.8,4.8c0.3,0.4,0.2,0.8-0.2,1.1c-1.3,1.4-2.5,2.9-3.8,4.3c-0.4,0.5-0.7,0.5-1-0.1
		c-0.5-1-1.1-1.9-1.6-2.9C47.4,17.1,49,14.8,50,12.2z"/>
	<path class="st4" d="M17.8,12.2c0.9,1.1,1.4,2.5,2.2,3.7c0.3,0.5,0.2,0.9-0.1,1.3c-1.1,1.7-2.1,3.4-3.1,5.1c-0.4,0.7-0.7,0.6-1.1,0
		c-0.6-0.8-1.3-1.5-1.9-2.3c0.1-0.3,0.2-0.5,0.3-0.8C15.3,17,16.8,14.7,17.8,12.2z"/>
	<path class="st5" d="M17.8,12.2c-1.1,2.5-2.5,4.7-3.7,7.1c-0.1,0.2-0.2,0.5-0.3,0.8c-2.4-2.3-2.4-2.3-0.8-5.1
		c0.9-1.6,1.8-3.2,2.7-4.9c0.5-0.9,0.9-0.9,1.3,0C17.2,10.9,17.5,11.6,17.8,12.2z"/>
	<path class="st6" d="M50,12.2c-1,2.6-2.6,4.9-3.8,7.4c-0.5-0.8-1-1.5-1.5-2.3c-0.4-0.6-0.3-1,0-1.6c1-1.8,2-3.7,3-5.5
		c0.5-0.9,0.9-1,1.3,0C49.3,10.9,49.9,11.4,50,12.2z"/>
	<path class="st7" d="M20.3,32c2.3-1.3,4.4-2.5,6.5-3.6c0.8-0.4,1.4-1,1.9-1.9c1.1-2.2,2.3-4.3,3.6-6.7c1.3,2.3,2.4,4.4,3.5,6.6
		c0.5,0.9,1.1,1.5,1.9,2c2.1,1.1,4.2,2.3,6.5,3.6c-2,1.1-3.9,2.3-5.8,3.2c-1.4,0.7-2.3,1.7-3,3.1c-0.9,2-2.1,3.8-3.2,5.9
		c-1.2-2.3-2.4-4.3-3.5-6.5c-0.5-1-1.2-1.7-2.3-2.3C24.5,34.4,22.5,33.2,20.3,32z M32.1,40.3c1.2-2.1,1.8-4,3-5.3
		c1.3-1.3,3.2-2,5.2-3.1c-4.1-1.3-6.7-3.9-8.1-7.9c-1.4,4-4,6.6-7.9,8C28.3,33.5,30.9,36,32.1,40.3z"/>
	<path class="st3" d="M32.1,40.3c-1.2-4.3-3.9-6.8-7.8-8.3c3.9-1.5,6.5-4,7.9-8c1.4,3.9,4,6.6,8.1,7.9c-2,1.1-3.9,1.8-5.2,3.1
		C33.9,36.3,33.3,38.2,32.1,40.3z"/>
</g>
</svg>
