<?xml version="1.0" encoding="utf-8"?>
<!-- Generator: Adobe Illustrator 19.0.0, SVG Export Plug-In . SVG Version: 6.00 Build 0)  -->
<svg version="1.1" id="Layer_1" xmlns="http://www.w3.org/2000/svg" xmlns:xlink="http://www.w3.org/1999/xlink" x="0px" y="0px"
	 viewBox="0 0 225.9 265.4" style="enable-background:new 0 0 225.9 265.4;" xml:space="preserve">
<style type="text/css">
	.st0{fill:#DF1F26;}
</style>
<path id="XMLID_2_" class="st0" d="M112.2,265.4c0.1-0.1,0.3-0.3,0.2-0.4c-0.3-0.5-0.6-1-1-1.5c-3-3.6-6-7.2-9.1-10.8
	c-15.2-18.1-30.5-36.2-45.7-54.3c-14.9-17.7-29.8-35.4-44.7-53.2c-3-3.5-5.9-7.1-8.9-10.6c-0.2-0.3-0.5-0.5-0.6-0.8
	c-0.1-0.2-0.1-0.5,0.1-0.7c1-1.2,2-2.4,2.9-3.6c19.2-23.2,38.4-46.5,57.7-69.7c14.2-17.2,28.4-34.4,42.6-51.6c2.1-2.5,4.1-5,6.2-7.5
	c0.2-0.3,0.5-0.5,0.7-0.7c0.1-0.1,0.4-0.1,0.5,0c0.4,0.4,0.7,0.7,1,1.1c5,6,10,12.1,15.1,18.1c11.2,13.5,22.4,27,33.6,40.4
	c12.8,15.4,25.5,30.8,38.3,46.2c7.2,8.6,14.3,17.2,21.5,25.8c0.4,0.5,0.9,1.1,1.3,1.6c0.1,0.1,0.1,0.4,0,0.5c-0.2,0.4-0.5,0.7-0.8,1
	c-5.7,6.7-11.4,13.4-17,20.2c-12.7,15-25.4,30-38.1,45c-12.6,14.9-25.3,29.9-37.9,44.8c-5.3,6.3-10.6,12.5-15.9,18.8
	c-0.3,0.4-0.6,0.8-0.9,1.2c-0.1,0.1,0.1,0.3,0.1,0.5C112.8,265.4,112.5,265.4,112.2,265.4z"/>
</svg>
