<?xml version="1.0" encoding="utf-8"?>
<!-- Generator: Adobe Illustrator 19.0.0, SVG Export Plug-In . SVG Version: 6.00 Build 0)  -->
<svg version="1.1" id="Layer_1" xmlns="http://www.w3.org/2000/svg" xmlns:xlink="http://www.w3.org/1999/xlink" x="0px" y="0px"
	 viewBox="0 0 225.9 265.4" style="enable-background:new 0 0 225.9 265.4;" xml:space="preserve">
<style type="text/css">
	.st0{fill:#DF1F26;}
</style>
<path id="XMLID_29_" class="st0" d="M225.9,93.5c0,0.3,0,0.7-0.1,1c-0.1,0.5-0.3,1-0.3,1.4c-0.1,2.7-0.7,5.3-1.4,7.9
	c-1.5,6.1-3.7,12-6.3,17.7c-4.8,10.4-10.9,20-18,28.9c-1.6,2-3.2,4.1-4.9,6.1c-4,4.7-8.2,9.2-12.5,13.7c-6.8,7.1-13.7,14-20.7,20.8
	c-5.5,5.3-10.9,10.6-16.4,15.9c-5,4.9-9.9,10-14.7,15.1c-5.6,6-11,12.1-16.3,18.4c-0.3,0.3-0.6,0.6-0.8,0.9c-0.2,0.2-0.5,0.2-0.6,0
	c-0.2-0.2-0.5-0.5-0.7-0.8c-3.1-3.9-6.3-7.6-9.5-11.3c-5.8-6.6-11.8-13-18-19.2c-2.6-2.7-5.4-5.2-8.1-7.9
	c-5.6-5.5-11.2-11.1-16.7-16.6c-3.8-3.8-7.7-7.7-11.5-11.6c-4.1-4.2-8.2-8.3-12.3-12.5c-10.9-11.4-19.9-24-26.6-38.4
	c-3.3-7-5.8-14.2-7.5-21.7C1,97,0.2,92.8,0,88.5c-0.1-1.3,0-2.7,0.1-4c1.1-8.3,3.1-16.4,6.4-24.1c3-7,7-13.3,12.4-18.7
	c6.6-6.8,14.4-11.5,23.6-14.1c2.5-0.7,5-1.1,7.6-1.4c3.2-0.3,6.3-0.5,9.5-0.4c7.5,0.2,14.8,1.5,21.7,4.6c7.8,3.5,14.2,8.8,19.2,15.6
	c4,5.3,6.9,11.2,9.1,17.5c1.8,5.1,3.1,10.4,3.8,15.8c0,0.3,0.1,0.3,0.3,0.2c0.1,0,0.1-0.1,0.2-0.2c0.3-0.6,0.3-1.3,0.4-2
	c0.9-6.7,2.5-13.1,5.1-19.3c2.5-6,5.9-11.4,10.3-16.2c5.6-6.1,12.3-10.5,19.9-13.5c4.4-1.7,8.9-2.9,13.5-3.7
	c2.9-0.5,5.8-0.7,8.7-0.3c4.7,0.6,9.4,1.6,13.9,3.1c13.5,4.7,23.8,13.3,30.9,25.6c3.4,6,5.9,12.4,7.5,19.1c0.5,2.1,1,4.2,1.1,6.4
	c0,0.3,0.1,0.6,0.4,0.9C225.9,84.1,225.9,88.8,225.9,93.5z"/>
</svg>
