<?xml version="1.0" encoding="utf-8"?>
<!-- Generator: Adobe Illustrator 19.0.0, SVG Export Plug-In . SVG Version: 6.00 Build 0)  -->
<svg version="1.1" id="Layer_1" xmlns="http://www.w3.org/2000/svg" xmlns:xlink="http://www.w3.org/1999/xlink" x="0px" y="0px"
	 viewBox="0 0 225.9 265.4" style="enable-background:new 0 0 225.9 265.4;" xml:space="preserve">
<style type="text/css">
	.st0{fill:#0F0E0E;}
</style>
<path id="XMLID_2_" class="st0" d="M112.7,0c-0.1,0.1-0.3,0.3-0.3,0.4c0.5,0.8,0.9,1.5,1.4,2.2c3.5,5,7.3,9.9,11.2,14.7
	c7,8.6,14.5,16.8,22.3,24.7c7.3,7.4,14.9,14.5,22.5,21.5c6.3,5.8,12.6,11.6,18.6,17.6c5.6,5.5,10.9,11.3,15.7,17.4
	c7.8,9.9,13.7,20.9,17.6,32.9c1.4,4.4,2.6,9,3.3,13.6c0.7,4.4,1,8.9,0.6,13.4c-0.5,5.4-1.5,10.6-3.1,15.8
	c-2.3,7.4-5.6,14.2-10.2,20.4c-4.5,6-9.9,10.9-16.3,14.8c-4.4,2.7-9.2,4.4-14.2,5.5c-3.6,0.8-7.2,1.5-10.9,1.7c-3,0.7-6,0.2-8.9-0.2
	c-5.2-0.7-10.3-2.1-15.2-4.3c-6-2.6-11.5-6.1-16.1-10.8c-0.3-0.3-0.7-0.6-1-0.8c-0.1-0.1-0.4,0-0.4,0.1c-0.2,0.5-0.4,1-0.5,1.5
	c-0.6,3-0.7,5.9-0.7,8.9c0.1,5.7,1.2,11.2,3,16.6c1.9,5.8,4.5,11.3,7.5,16.6c3.9,6.7,8.4,13,13.4,18.9c0.3,0.4,0.6,0.8,0.9,1.3
	c0,0.1-0.1,0.3-0.2,0.4c-0.1,0.1-0.3,0.1-0.5,0.1c-2.9,0-5.8,0.1-8.7,0.1c-9.9,0-19.7,0.1-29.6,0.1c-11.8,0-23.6,0.1-35.4,0.1
	c-1,0-1.9,0-2.9,0c-0.7,0-1-0.1-0.9-0.3c0.1-0.2,0.2-0.5,0.3-0.7c3.6-4.2,7-8.6,10.1-13.2c3.6-5.5,6.6-11.2,8.9-17.3
	c1.5-4.1,2.7-8.4,3.3-12.7c0.6-4.1,0.7-8.2,0.1-12.4c-0.3-2.1-0.8-4.1-1.6-6.1c-0.1-0.3-0.3-0.6-0.5-0.9c-0.1-0.2-0.3-0.2-0.4-0.1
	c-0.4,0.2-0.7,0.5-1,0.8c-6.8,6.3-14.8,10-23.8,11.8c-5.2,1-10.5,1.4-15.8,1.1c-2.4-0.1-4.7-0.2-7.1-0.5c-2.1-0.3-4.2-0.7-6.2-1.3
	c-15.8-5.2-27.6-15.2-35.3-29.9c-2.2-4.2-3.6-8.8-4.5-13.5c-1-5.1-1.2-10.3-1.1-15.5c0.1-12.5,3.3-24.4,8.8-35.6
	c4.1-8.3,9.3-15.9,15.2-23.1c5.8-7,11.9-13.7,18.3-20.1c6.5-6.6,13.3-12.8,20.1-19.2c2.9-2.7,5.8-5.4,8.7-8.1
	c0.9-0.8,1.8-1.7,2.6-2.6c8.7-9.1,17.2-18.4,25.2-28.2c4.1-5,8-10,11.7-15.3c0.4-0.7,0.9-1.3,1.3-2c0-0.1-0.2-0.2-0.3-0.4
	C112,0,112.4,0,112.7,0z"/>
</svg>
